<svg xmlns="http://www.w3.org/2000/svg" viewBox="2638 1079 32 32">
  <defs>
    <style>
      .cls-1 {
        fill: #dedede;
      }
    </style>
  </defs>
  <path id="link" class="cls-1" d="M16,0A16,16,0,1,0,32,16,15.954,15.954,0,0,0,16,0ZM12.218,17.745,11.2,18.764a.7.7,0,0,1-1.018,0L8.364,16.945A6.12,6.12,0,0,1,12.655,6.473a6.23,6.23,0,0,1,4.364,1.818l1.818,1.818a.7.7,0,0,1,0,1.018l-1.018,1.018a.7.7,0,0,1-1.018,0l-1.818-1.818a3.191,3.191,0,0,0-2.255-.945,3.228,3.228,0,0,0-3.2,3.2,3.191,3.191,0,0,0,.945,2.255l1.818,1.818a1.152,1.152,0,0,1-.073,1.091Zm.364-4.145L13.6,12.582a.7.7,0,0,1,1.018,0l4.8,4.8a.7.7,0,0,1,0,1.018L18.4,19.418a.7.7,0,0,1-1.018,0l-4.8-4.8A.7.7,0,0,1,12.582,13.6Zm6.764,11.855a6.23,6.23,0,0,1-4.364-1.818l-1.818-1.818a.7.7,0,0,1,0-1.018l1.018-1.018a.7.7,0,0,1,1.018,0L17.018,21.6a3.191,3.191,0,0,0,2.255.945,3.228,3.228,0,0,0,3.2-3.2,3.191,3.191,0,0,0-.945-2.255l-1.818-1.818a.7.7,0,0,1,0-1.018l1.018-1.018a.7.7,0,0,1,1.018,0l1.818,1.818a6.1,6.1,0,0,1,1.818,4.364A6.021,6.021,0,0,1,19.345,25.455Z" transform="translate(2638 1111) rotate(-90)"/>
</svg>
