<svg xmlns="http://www.w3.org/2000/svg" viewBox="2683.9 1079 32 32">
  <defs>
    <style>
      .cls-1 {
        fill: #dedede;
      }
    </style>
  </defs>
  <g id="_002-twitter" data-name="002-twitter" transform="translate(2683.9 1079)">
    <g id="Group_29" data-name="Group 29">
      <path id="Path_12" data-name="Path 12" class="cls-1" d="M16,0A16,16,0,1,0,32,16,16,16,0,0,0,16,0Zm7.96,12.408.012.51A11.2,11.2,0,0,1,6.726,22.356a8.1,8.1,0,0,0,.94.056,7.9,7.9,0,0,0,4.892-1.686,3.946,3.946,0,0,1-3.68-2.736,4.05,4.05,0,0,0,1.78-.068A3.943,3.943,0,0,1,7.5,14.06v-.05a3.934,3.934,0,0,0,1.784.494,3.945,3.945,0,0,1-1.22-5.258,11.18,11.18,0,0,0,8.12,4.116A3.942,3.942,0,0,1,22.9,9.77a7.977,7.977,0,0,0,2.5-.956,3.95,3.95,0,0,1-1.732,2.18,7.9,7.9,0,0,0,2.262-.62A7.963,7.963,0,0,1,23.96,12.408Z"/>
    </g>
  </g>
</svg>
